<svg xmlns="http://www.w3.org/2000/svg" viewBox="0 0 1200 760" font-family="'Space Mono', ui-monospace, monospace">
  <defs>
    <pattern id="hatch3" width="14" height="14" patternTransform="rotate(45)" patternUnits="userSpaceOnUse">
      <rect width="14" height="14" fill="#0a0a0a"/>
      <line x1="0" y1="0" x2="0" y2="14" stroke="rgba(237,237,237,0.06)" stroke-width="2"/>
    </pattern>
    <marker id="arr3" viewBox="0 0 8 8" refX="7" refY="4" markerWidth="7" markerHeight="7" orient="auto">
      <path d="M0,0 L8,4 L0,8" fill="none" stroke="rgba(237,237,237,0.45)" stroke-width="1.4"/>
    </marker>
  </defs>

  <rect width="1200" height="760" fill="#0a0a0a"/>
  <rect x="1" y="1" width="1198" height="758" fill="none" stroke="rgba(237,237,237,0.14)" stroke-width="2"/>

  <!-- header -->
  <line x1="0" y1="86" x2="1200" y2="86" stroke="rgba(237,237,237,0.14)" stroke-width="2"/>
  <circle cx="64" cy="43" r="7" fill="#d71920"/>
  <text x="92" y="52" fill="#ededed" font-size="26" font-weight="700" letter-spacing="6">PIPELINE — TALEJARVISBANK</text>
  <text x="1136" y="52" fill="rgba(237,237,237,0.32)" font-size="22" letter-spacing="4" text-anchor="end">A.03</text>

  <!-- flow row 1 -->
  <g stroke="rgba(237,237,237,0.25)" stroke-width="2" fill="url(#hatch3)">
    <rect x="64" y="160" width="300" height="140"/>
    <rect x="450" y="160" width="300" height="140"/>
    <rect x="836" y="160" width="300" height="140"/>
  </g>

  <g fill="#ededed" font-size="24" font-weight="700" letter-spacing="2" text-anchor="middle">
    <text x="214" y="218">SYSTEMD TIMER</text>
    <text x="214" y="250">EJECUCIÓN PROGRAMADA</text>
    <text x="600" y="218">PYTHON 3.12</text>
    <text x="600" y="250">+ PLAYWRIGHT</text>
    <text x="986" y="218">PORTAL BANCARIO</text>
    <text x="986" y="250">NAVEGACIÓN HEADLESS</text>
  </g>

  <g stroke="rgba(237,237,237,0.45)" stroke-width="2" marker-end="url(#arr3)">
    <line x1="364" y1="230" x2="442" y2="230"/>
    <line x1="750" y1="230" x2="828" y2="230"/>
  </g>

  <!-- return path -->
  <line x1="986" y1="300" x2="986" y2="380" stroke="rgba(237,237,237,0.45)" stroke-width="2"/>
  <line x1="986" y1="380" x2="214" y2="380" stroke="rgba(237,237,237,0.45)" stroke-width="2"/>
  <line x1="214" y1="380" x2="214" y2="452" stroke="rgba(237,237,237,0.45)" stroke-width="2" marker-end="url(#arr3)"/>
  <text x="600" y="366" fill="rgba(237,237,237,0.55)" font-size="20" letter-spacing="3" text-anchor="middle">EXTRACCIÓN DE MOVIMIENTOS · NORMALIZACIÓN</text>

  <!-- zero trust api -->
  <rect x="64" y="460" width="686" height="150" fill="#0a0a0a" stroke="#d71920" stroke-width="2"/>
  <circle cx="104" cy="535" r="6" fill="#d71920"/>
  <text x="130" y="526" fill="#ededed" font-size="24" font-weight="700" letter-spacing="3">REST API · ARQUITECTURA ZERO TRUST</text>
  <text x="130" y="566" fill="rgba(237,237,237,0.55)" font-size="22" letter-spacing="2">SIN CREDENCIALES PERSISTIDAS · SECRETOS EFÍMEROS</text>

  <rect x="836" y="460" width="300" height="150" fill="url(#hatch3)" stroke="rgba(237,237,237,0.25)" stroke-width="2"/>
  <text x="986" y="526" fill="#ededed" font-size="24" font-weight="700" letter-spacing="2" text-anchor="middle">PODMAN</text>
  <text x="986" y="558" fill="rgba(237,237,237,0.55)" font-size="22" letter-spacing="2" text-anchor="middle">AISLAMIENTO</text>
  <line x1="750" y1="535" x2="828" y2="535" stroke="rgba(237,237,237,0.45)" stroke-width="2" marker-end="url(#arr3)"/>

  <!-- footer -->
  <line x1="0" y1="684" x2="1200" y2="684" stroke="rgba(237,237,237,0.14)" stroke-width="2"/>
  <text x="64" y="728" fill="rgba(237,237,237,0.32)" font-size="20" letter-spacing="4">AUTOMATIZACIÓN BANCARIA · SIN INTERVENCIÓN MANUAL</text>
  <text x="1136" y="728" fill="rgba(237,237,237,0.32)" font-size="20" letter-spacing="4" text-anchor="end">[ 2024 ]</text>
</svg>
